<svg xmlns="http://www.w3.org/2000/svg" width="1200" height="630" viewBox="0 0 1200 630"><defs><linearGradient id="g" x1="0" x2="1"><stop stop-color="#47e9ff"/><stop offset=".55" stop-color="#5f8cff"/><stop offset="1" stop-color="#a478ff"/></linearGradient><radialGradient id="r"><stop stop-color="#47e9ff" stop-opacity=".14"/><stop offset="1" stop-color="#030407" stop-opacity="0"/></radialGradient></defs><rect width="1200" height="630" fill="#030407"/><rect width="1200" height="630" fill="url(#r)"/><path d="M0 100h1200M0 200h1200M0 300h1200M0 400h1200M0 500h1200M100 0v630M200 0v630M300 0v630M400 0v630M500 0v630M600 0v630M700 0v630M800 0v630M900 0v630M1000 0v630M1100 0v630" stroke="#fff" stroke-opacity=".035"/><text x="80" y="105" fill="#47e9ff" font-family="monospace" font-size="28" letter-spacing="8">MO.</text><text x="80" y="265" fill="#f4f8ff" font-family="Arial,sans-serif" font-size="82" font-weight="800">MOHAMMED</text><text x="80" y="355" fill="url(#g)" font-family="Arial,sans-serif" font-size="92" font-weight="800">OWAIES</text><text x="84" y="420" fill="#91a0b8" font-family="monospace" font-size="24">AI/ML ENGINEER · COMPUTER VISION · SOFTWARE</text><rect x="80" y="485" width="310" height="5" rx="3" fill="url(#g)"/><circle cx="1080" cy="500" r="90" fill="none" stroke="#47e9ff" stroke-opacity=".08"/><circle cx="1080" cy="500" r="120" fill="none" stroke="#a478ff" stroke-opacity=".05"/></svg>